# xmcd
#
# Track frame offsets:
# 182
# 32222
# 69765
# 93100
# 120682
# 143745
# 161655
# 186902
#
# Disc length: 2689 seconds
#
# Revision: 0
# Processed by: cddbd v1.4PL0 Copyright (c) Steve Scherf et al.
# Submitted via: Audion 3.0.2 (http://www.panic.com/audion/)
#
DISCID=640a7f08
DTITLE=Haydn - Quatuors - Italianno
DYEAR=1900
DGENRE=
TTITLE0=
TTITLE1=op.76-3-2
TTITLE2=
TTITLE3=
TTITLE4=op.33-2-1
TTITLE5=
TTITLE6=
TTITLE7=
EXTD=
EXTT0=
EXTT1=
EXTT2=
EXTT3=
EXTT4=
EXTT5=
EXTT6=
EXTT7=
PLAYORDER=
